<svg width="91" height="82" viewBox="0 0 91 82" fill="none" xmlns="http://www.w3.org/2000/svg">
<g filter="url(#filter0_dd_264_5)">
<path d="M18.6719 28.5842V46.4964L23.15 37.5403L18.6719 28.5842Z" fill="#CEA0FF"/>
<path d="M23.15 37.5403L18.6719 46.4964L24.6427 40.5256L23.15 37.5403Z" fill="#CEA0FF"/>
<path d="M26.3486 31.1431L24.6427 34.5549L27.628 37.5403L32.1061 33.0622L26.3486 31.1431Z" fill="#CEA0FF"/>
<path d="M18.6719 28.5842L24.6427 34.5549L26.3486 31.1431L18.6719 28.5842Z" fill="#CEA0FF"/>
<path d="M36.5841 28.5842H27.628L26.3486 31.1431L32.1061 33.0622L36.5841 28.5842Z" fill="#CEA0FF"/>
<path d="M27.628 28.5842H18.6719L26.3486 31.1431L27.628 28.5842Z" fill="#CEA0FF"/>
<path d="M27.628 28.5842H36.5841V19.6281L30.6134 22.6134L27.628 28.5842Z" fill="#CEA0FF"/>
<path d="M27.628 28.5842L30.6134 22.6134L18.6719 28.5842H27.628Z" fill="#CEA0FF"/>
<path d="M39.143 18.3486L41.0622 24.1061L45.5402 19.6281L42.5549 16.6427L39.143 18.3486Z" fill="#CEA0FF"/>
<path d="M45.5402 15.15L48.5256 16.6427L54.4963 10.672L45.5402 15.15Z" fill="#CEA0FF"/>
<path d="M24.6427 40.5256L18.6719 46.4964L26.3486 43.9375L24.6427 40.5256Z" fill="#F1E0AB"/>
<path d="M32.1061 33.0622L27.628 37.5403L32.1061 42.0183L36.5841 40.5256V34.5549L32.1061 33.0622Z" fill="#F1E0AB"/>
<path d="M36.5841 28.5842L32.1061 33.0622L36.5841 34.5549V28.5842Z" fill="#F1E0AB"/>
<path d="M42.5549 28.5842L45.5402 37.5403L48.5256 28.5842H42.5549Z" fill="#F1E0AB"/>
<path d="M45.5402 19.6281L41.0622 24.1061L42.5549 28.5842H48.5256L50.0183 24.1061L45.5402 19.6281Z" fill="#F1E0AB"/>
<path d="M54.4963 10.672L48.5256 16.6427L51.9374 18.3486L54.4963 10.672Z" fill="#F1E0AB"/>
<path d="M63.4524 28.5842L64.7319 31.1431L72.4085 28.5842H63.4524Z" fill="#F1ABAC"/>
<path d="M36.5841 10.672L42.5549 16.6427L45.5402 15.15L36.5841 10.672Z" fill="#F1ABAC"/>
<path d="M42.5549 16.6427L45.5402 19.6281L48.5256 16.6427L45.5402 15.15L42.5549 16.6427Z" fill="#F1ABAC"/>
<path d="M48.5256 16.6427L45.5402 19.6281L50.0183 24.1061L51.9374 18.3486L48.5256 16.6427Z" fill="#F1ABAC"/>
<path d="M50.0183 24.1061L54.4963 28.5842V19.6281L51.9374 18.3486L50.0183 24.1061Z" fill="#F1ABAC"/>
<path d="M67.9305 37.5403L66.4378 40.5256L72.4085 46.4964L67.9305 37.5403Z" fill="#F1ABAC"/>
<path d="M54.4963 10.672L51.9374 18.3486L54.4963 19.6281V10.672Z" fill="#ABB4F1"/>
<path d="M36.5841 10.672V19.6281L39.143 18.3486L36.5841 10.672Z" fill="#ABF1C6"/>
<path d="M36.5841 19.6281V28.5842L41.0622 24.1061L39.143 18.3486L36.5841 19.6281Z" fill="#ABF1C6"/>
<path d="M41.0622 24.1061L36.5841 28.5842H42.5549L41.0622 24.1061Z" fill="#ABF1C6"/>
<path d="M36.5841 28.5842V34.5549L45.5402 37.5403L42.5549 28.5842H36.5841Z" fill="#ABF1C6"/>
<path d="M36.5841 34.5549V40.5256L45.5402 37.5403L36.5841 34.5549Z" fill="#ABF1C6"/>
<path d="M45.5402 37.5403L36.5841 40.5256V46.4964H42.5549L45.5402 37.5403Z" fill="#ABF1C6"/>
<path d="M45.5402 37.5403L42.5549 46.4964H48.5256L45.5402 37.5403Z" fill="#ABF1C6"/>
<path d="M42.5549 46.4964H36.5841L41.0622 50.9744L42.5549 46.4964Z" fill="#ABF1C6"/>
<path d="M42.5549 46.4964L41.0622 50.9744L45.5402 55.4525L50.0183 50.9744L48.5256 46.4964H42.5549Z" fill="#ABF1C6"/>
<path d="M36.5841 64.4086H54.4963L45.5402 59.9305L36.5841 64.4086Z" fill="#ABF1C6"/>
<path d="M45.5402 59.9305L54.4963 64.4086L48.5256 58.4378L45.5402 59.9305Z" fill="#ABF1C6"/>
<path d="M48.5256 58.4378L54.4963 64.4086L51.9374 56.7319L48.5256 58.4378Z" fill="#ABF1C6"/>
<path d="M54.4963 10.672V19.6281L60.4671 22.6134L54.4963 10.672Z" fill="#F1ABE8"/>
<path d="M54.4963 28.5842H63.4524L60.4671 22.6134L54.4963 19.6281V28.5842Z" fill="#F1ABE8"/>
<path d="M54.4963 28.5842L58.9744 33.0622L64.7319 31.1431L63.4524 28.5842H54.4963Z" fill="#F1ABE8"/>
<path d="M64.7319 31.1431L58.9744 33.0622L63.4524 37.5403L66.4378 34.5549L64.7319 31.1431Z" fill="#F1ABE8"/>
<path d="M54.4963 28.5842V34.5549L58.9744 33.0622L54.4963 28.5842Z" fill="#F1ABE8"/>
<path d="M58.9744 33.0622L54.4963 34.5549V40.5256L58.9744 42.0183L63.4524 37.5403L58.9744 33.0622Z" fill="#F1ABE8"/>
<path d="M58.9744 42.0183L54.4963 40.5256V46.4964L58.9744 42.0183Z" fill="#F1ABE8"/>
<path d="M54.4963 55.4525V64.4086L60.4671 52.4671L54.4963 55.4525Z" fill="#F1ABE8"/>
<path d="M63.4524 28.5842H72.4085L60.4671 22.6134L63.4524 28.5842Z" fill="#F1ABAC"/>
<path d="M72.4085 28.5842L64.7319 31.1431L66.4378 34.5549L72.4085 28.5842Z" fill="#F1ABAC"/>
<path d="M72.4085 46.4964V28.5842L67.9305 37.5403L72.4085 46.4964Z" fill="#F1ABAC"/>
<path d="M30.6134 22.6134L36.5841 19.6281V10.672L30.6134 22.6134Z" fill="#7117DF"/>
<path d="M36.5841 40.5256L32.1061 42.0183L36.5841 46.4964V40.5256Z" fill="#7117DF"/>
<path d="M26.3486 43.9375L18.6719 46.4964H27.628L26.3486 43.9375Z" fill="#7117DF"/>
<path d="M27.628 46.4964H18.6719L30.6134 52.4671L27.628 46.4964Z" fill="#7117DF"/>
<path d="M18.6719 46.4964L36.5841 64.4086L30.6134 52.4671L18.6719 46.4964Z" fill="#7117DF"/>
<path d="M36.5841 10.672L18.6719 28.5842L30.6134 22.6134L36.5841 10.672Z" fill="#ABB4F1"/>
<path d="M42.5549 58.4378L36.5841 64.4086L45.5402 59.9305L42.5549 58.4378Z" fill="#7896F0"/>
<path d="M45.5402 55.4525L42.5549 58.4378L45.5402 59.9305L48.5256 58.4378L45.5402 55.4525Z" fill="#7896F0"/>
<path d="M50.0183 50.9744L45.5402 55.4525L48.5256 58.4378L51.9374 56.7319L50.0183 50.9744Z" fill="#7896F0"/>
<path d="M50.0183 50.9744L51.9374 56.7319L54.4963 55.4525V46.4964L50.0183 50.9744Z" fill="#7896F0"/>
<path d="M54.4963 55.4525L60.4671 52.4671L63.4524 46.4964H54.4963V55.4525Z" fill="#7896F0"/>
<path d="M54.4963 46.4964H63.4524L64.7319 43.9375L58.9744 42.0183L54.4963 46.4964Z" fill="#7896F0"/>
<path d="M66.4378 40.5256L63.4524 37.5403L58.9744 42.0183L64.7319 43.9375L66.4378 40.5256Z" fill="#7896F0"/>
<path d="M66.4378 34.5549L63.4524 37.5403L66.4378 40.5256L67.9305 37.5403L66.4378 34.5549Z" fill="#7896F0"/>
<path d="M72.4085 28.5842L66.4378 34.5549L67.9305 37.5403L72.4085 28.5842Z" fill="#7896F0"/>
<path fill-rule="evenodd" clip-rule="evenodd" d="M45.5402 15.15L54.4963 10.672L60.4671 22.6134L72.4085 28.5842L54.4963 10.672H36.5841L45.5402 15.15Z" fill="#ABB4F1"/>
<path d="M36.5841 10.672L39.143 18.3486L42.5549 16.6427L36.5841 10.672Z" fill="#EA79F2"/>
<path d="M48.5256 28.5842H54.4963L50.0183 24.1061L48.5256 28.5842Z" fill="#EA79F2"/>
<path d="M48.5256 28.5842L45.5402 37.5403L54.4963 34.5549V28.5842H48.5256Z" fill="#EA79F2"/>
<path d="M54.4963 34.5549L45.5402 37.5403L54.4963 40.5256V34.5549Z" fill="#EA79F2"/>
<path d="M45.5402 37.5403L48.5256 46.4964H54.4963V40.5256L45.5402 37.5403Z" fill="#EA79F2"/>
<path d="M48.5256 46.4964L50.0183 50.9744L54.4963 46.4964H48.5256Z" fill="#EA79F2"/>
<path d="M51.9374 56.7319L54.4963 64.4086V55.4525L51.9374 56.7319Z" fill="#EA79F2"/>
<path d="M72.4085 46.4964L66.4378 40.5256L64.7319 43.9375L72.4085 46.4964Z" fill="#EA79F2"/>
<path d="M63.4524 46.4964H72.4085L64.7319 43.9375L63.4524 46.4964Z" fill="#EA79F2"/>
<path d="M60.4671 52.4671L72.4085 46.4964H63.4524L60.4671 52.4671Z" fill="#EA79F2"/>
<path d="M54.4963 64.4086L72.4085 46.4964L60.4671 52.4671L54.4963 64.4086Z" fill="#EA79F2"/>
<path d="M18.6719 28.5842L23.15 37.5403L24.6427 34.5549L18.6719 28.5842Z" fill="#E45B5B"/>
<path d="M24.6427 34.5549L23.15 37.5403L24.6427 40.5256L27.628 37.5403L24.6427 34.5549Z" fill="#E45B5B"/>
<path d="M32.1061 42.0183L26.3486 43.9375L27.628 46.4964H36.5841L32.1061 42.0183Z" fill="#E45B5B"/>
<path d="M27.628 37.5403L24.6427 40.5256L26.3486 43.9375L32.1061 42.0183L27.628 37.5403Z" fill="#E45B5B"/>
<path d="M36.5841 55.4525V46.4964H27.628L30.6134 52.4671L36.5841 55.4525Z" fill="#E45B5B"/>
<path d="M36.5841 64.4086V55.4525L30.6134 52.4671L36.5841 64.4086Z" fill="#E45B5B"/>
<path d="M41.0622 50.9744L36.5841 46.4964V55.4525L39.143 56.7319L41.0622 50.9744Z" fill="#E45B5B"/>
<path d="M45.5402 55.4525L41.0622 50.9744L39.143 56.7319L42.5549 58.4378L45.5402 55.4525Z" fill="#E45B5B"/>
<path d="M36.5841 64.4086L39.143 56.7319L36.5841 55.4525V64.4086Z" fill="#E45B5B"/>
<path d="M42.5549 58.4378L39.143 56.7319L36.5841 64.4086L42.5549 58.4378Z" fill="#E45B5B"/>
</g>
<defs>
<filter id="filter0_dd_264_5" x="0.671936" y="0.671967" width="89.7366" height="89.7366" filterUnits="userSpaceOnUse" color-interpolation-filters="sRGB">
<feFlood flood-opacity="0" result="BackgroundImageFix"/>
<feColorMatrix in="SourceAlpha" type="matrix" values="0 0 0 0 0 0 0 0 0 0 0 0 0 0 0 0 0 0 127 0" result="hardAlpha"/>
<feOffset dy="4"/>
<feGaussianBlur stdDeviation="2"/>
<feColorMatrix type="matrix" values="0 0 0 0 0 0 0 0 0 0 0 0 0 0 0 0 0 0 0.3 0"/>
<feBlend mode="normal" in2="BackgroundImageFix" result="effect1_dropShadow_264_5"/>
<feColorMatrix in="SourceAlpha" type="matrix" values="0 0 0 0 0 0 0 0 0 0 0 0 0 0 0 0 0 0 127 0" result="hardAlpha"/>
<feMorphology radius="6" operator="dilate" in="SourceAlpha" result="effect2_dropShadow_264_5"/>
<feOffset dy="8"/>
<feGaussianBlur stdDeviation="6"/>
<feColorMatrix type="matrix" values="0 0 0 0 0 0 0 0 0 0 0 0 0 0 0 0 0 0 0.15 0"/>
<feBlend mode="normal" in2="effect1_dropShadow_264_5" result="effect2_dropShadow_264_5"/>
<feBlend mode="normal" in="SourceGraphic" in2="effect2_dropShadow_264_5" result="shape"/>
</filter>
</defs>
</svg>
